<?xml version="1.0" encoding="UTF-8" standalone="no" ?>
<!DOCTYPE svg PUBLIC "-//W3C//DTD SVG 1.1//EN" "http://www.w3.org/Graphics/SVG/1.1/DTD/svg11.dtd">
<svg xmlns="http://www.w3.org/2000/svg" xmlns:xlink="http://www.w3.org/1999/xlink" version="1.1" width="1080" height="1080" viewBox="0 0 1080 1080" xml:space="preserve">
<desc>Created with Fabric.js 5.2.4</desc>
<defs>
</defs>
<g transform="matrix(1 0 0 1 540 540)" id="b942857a-5c59-4092-a60b-eb52057fcca8"  >
<rect style="stroke: none; stroke-width: 1; stroke-dasharray: none; stroke-linecap: butt; stroke-dashoffset: 0; stroke-linejoin: miter; stroke-miterlimit: 4; fill: rgb(255,255,255); fill-rule: nonzero; opacity: 1; visibility: hidden;" vector-effect="non-scaling-stroke"  x="-540" y="-540" rx="0" ry="0" width="1080" height="1080" />
</g>
<g transform="matrix(1 0 0 1 540 540)" id="cc1b0364-b345-4411-9d24-eae5201e38b9"  >
</g>
<g transform="matrix(45 0 0 45 540 540)"  >
<g style=""   >
		<g transform="matrix(1 0 0 1 0 0)" id="icon"  >
<path style="stroke: none; stroke-width: 1; stroke-dasharray: none; stroke-linecap: butt; stroke-dashoffset: 0; stroke-linejoin: miter; stroke-miterlimit: 4; fill: rgb(255,255,255); fill-opacity: 0; fill-rule: nonzero; opacity: 1;" vector-effect="non-scaling-stroke"  transform=" translate(-12, -12)" d="M 0 0 L 24 0 L 24 24 L 0 24 z" stroke-linecap="round" />
</g>
		<g transform="matrix(1 0 0 1 0 0.72)" id="icon"  >
<path style="stroke: none; stroke-width: 1; stroke-dasharray: none; stroke-linecap: butt; stroke-dashoffset: 0; stroke-linejoin: miter; stroke-miterlimit: 4; fill: rgb(255,255,255); fill-rule: evenodd; opacity: 1;" vector-effect="non-scaling-stroke"  transform=" translate(-12, -12.72)" d="M 18.32 7.36 C 17.06 5.492 14.507 5.556 13.33 7.507000000000001 L 12.857 8.294 L 11.143999999999998 8.294 L 10.668999999999999 7.507000000000001 C 9.493 5.556 6.941 5.492 5.68 7.36 C 4.635999999999999 8.907 4.817 11.057 6.074999999999999 12.370000000000001 L 12 18.555 L 17.926000000000002 12.369 C 19.184 11.056 19.365000000000002 8.905999999999999 18.32 7.359 Z M 12 5.92 C 9.931000000000001 3.28 5.98 3.34 4.022 6.24 C 2.4610000000000003 8.552 2.708 11.747 4.6290000000000004 13.753 L 12 21.445 L 19.37 13.753 C 21.292 11.747 21.54 8.553 19.978 6.24 C 18.020000000000003 3.3400000000000003 14.068000000000001 3.2800000000000002 12.000000000000002 5.92 Z" stroke-linecap="round" />
</g>
</g>
</g>
<g transform="matrix(NaN NaN NaN NaN 0 0)"  >
<g style=""   >
</g>
</g>
</svg>