<?xml version="1.0" encoding="UTF-8" standalone="no" ?>
<!DOCTYPE svg PUBLIC "-//W3C//DTD SVG 1.1//EN" "http://www.w3.org/Graphics/SVG/1.1/DTD/svg11.dtd">
<svg xmlns="http://www.w3.org/2000/svg" xmlns:xlink="http://www.w3.org/1999/xlink" version="1.1" width="1080" height="1080" viewBox="0 0 1080 1080" xml:space="preserve">
<desc>Created with Fabric.js 5.2.4</desc>
<defs>
</defs>
<g transform="matrix(1 0 0 1 540 540)" id="9621dde1-5533-4442-a01c-a5a7f93a3e93"  >
<rect style="stroke: none; stroke-width: 1; stroke-dasharray: none; stroke-linecap: butt; stroke-dashoffset: 0; stroke-linejoin: miter; stroke-miterlimit: 4; fill: rgb(255,255,255); fill-rule: nonzero; opacity: 1; visibility: hidden;" vector-effect="non-scaling-stroke"  x="-540" y="-540" rx="0" ry="0" width="1080" height="1080" />
</g>
<g transform="matrix(1 0 0 1 540 540)" id="a5cd1c0a-83b4-4d61-8a65-8de62cd72695"  >
</g>
<g transform="matrix(NaN NaN NaN NaN 0 0)"  >
<g style=""   >
</g>
</g>
<g transform="matrix(22.5 0 0 22.5 540 540)" id="icon"  >
<path style="stroke: none; stroke-width: 1; stroke-dasharray: none; stroke-linecap: butt; stroke-dashoffset: 0; stroke-linejoin: miter; stroke-miterlimit: 4; fill: rgb(255,255,255); fill-rule: nonzero; opacity: 1;"  transform=" translate(-24, -18.5)" d="M 47.689 0.517 C 46.855 -0.549 45.398 0.30400000000000005 44.756 0.677 C 40.187 3.369 39.513 8.109 37.922 10.831 C 36.669 13.009 34.617999999999995 14.61 32.763 14.734 C 31.389999999999997 14.832 29.901999999999997 14.567 28.424999999999997 13.924 C 24.811999999999998 12.362 22.865 10.341 22.391 9.984 C 21.418 9.245 13.931999999999999 1.9540000000000006 7.831999999999999 1.657 C 7.831999999999999 1.657 7.087999999999999 0.15700000000000003 6.901999999999999 0.131 C 6.457 0.08 6 1.033 5.669 1.133 C 5.369 1.238 4.843999999999999 0.10899999999999999 4.539 0.15800000000000003 C 4.233 0.2 3.936 1.33 3.34 1.913 C 2.901 2.338 2.367 2.311 2.065 2.839 C 1.9609999999999999 3.031 1.9969999999999999 3.3689999999999998 1.879 3.679 C 1.626 4.32 0.7769999999999999 4.387 0.7689999999999999 5.0729999999999995 C 0.7689999999999999 5.834999999999999 1.4829999999999999 5.9799999999999995 2.107 6.510999999999999 C 2.603 6.935999999999999 2.6370000000000005 7.235999999999999 3.216 7.435 C 3.7310000000000003 7.611 4.48 7.061 5.144 7.258 C 5.697 7.421 6.229 7.537 6.348 8.104 C 6.4559999999999995 8.616999999999999 6.348 9.42 5.6659999999999995 9.329999999999998 C 5.443999999999999 9.299999999999999 4.4719999999999995 8.981999999999998 3.2709999999999995 9.109999999999998 C 1.8209999999999995 9.263999999999998 0.16599999999999948 9.727999999999998 0.0039999999999995595 11.329999999999998 C -0.07900000000000044 12.224999999999998 1.0319999999999996 13.271999999999998 2.1139999999999994 13.062999999999999 C 2.8559999999999994 12.919999999999998 2.5059999999999993 12.049999999999999 2.9109999999999996 11.629999999999999 C 3.4459999999999997 11.088999999999999 6.4559999999999995 13.517999999999999 9.254999999999999 13.517999999999999 C 10.440999999999999 13.517999999999999 11.318 13.217999999999998 12.19 12.308 C 12.267999999999999 12.251 12.375 12.105 12.5 12.09 C 12.613 12.105 12.824 12.218 12.89 12.265 C 15.152000000000001 14.058 16.857 17.664 25.15 17.706 C 26.314 17.72 27.648 18.264 28.741 19.259 C 29.701 20.125 30.269 21.51 30.816 22.909 C 31.651999999999997 25.015 33.138 27.048 35.4 29.316 C 35.519 29.451 37.379999999999995 30.877 37.519 30.982 C 37.544 31.003 37.687 31.316 37.625 31.492 C 37.586 32.872 37.38 36.832 40.356 36.998000000000005 C 41.087 37.038000000000004 40.905 36.535000000000004 40.905 36.178000000000004 C 40.895 35.495000000000005 40.776 34.807 41.131 34.098000000000006 C 41.638 33.141000000000005 40.08 32.68000000000001 40.114 30.585000000000008 C 40.150999999999996 29.018000000000008 38.823 29.28300000000001 38.144999999999996 28.087000000000007 C 37.763999999999996 27.400000000000006 37.409 27.022000000000006 37.446 26.19300000000001 C 37.591 21.433000000000007 36.412 18.297000000000008 35.836 17.53900000000001 C 35.381 16.95200000000001 34.989 16.733000000000008 35.422 16.46100000000001 C 37.903 14.82900000000001 38.471999999999994 13.311000000000009 38.471999999999994 13.311000000000009 C 39.791999999999994 10.23000000000001 40.983999999999995 7.421000000000009 42.62199999999999 6.173000000000009 C 42.95399999999999 5.932000000000009 43.79899999999999 5.293000000000009 44.324999999999996 5.053000000000009 C 45.852 4.328000000000009 46.67099999999999 3.897000000000009 47.102 3.4770000000000088 C 47.812999999999995 2.8020000000000085 48.372 1.3700000000000085 47.69 0.5170000000000088 L 47.689 0.5170000000000088 z" stroke-linecap="round" />
</g>
</svg>